<svg width="24" height="24" viewBox="0 0 24 24" fill="none" xmlns="http://www.w3.org/2000/svg">
<path d="M19.0771 12.455C18.8011 12.289 18.5021 12.138 18.1811 12C18.5021 11.862 18.8011 11.711 19.0771 11.545C20.5751 10.646 21.4001 9.316 21.4001 7.8C21.4001 5.127 18.8731 2.6 16.2001 2.6C14.6831 2.6 13.3531 3.425 12.4551 4.923C12.2891 5.199 12.1381 5.498 12.0001 5.819C11.8621 5.498 11.7111 5.199 11.5451 4.923C10.6461 3.425 9.3161 2.6 7.8001 2.6C5.1271 2.6 2.6001 5.127 2.6001 7.8C2.6001 8.844 3.0081 10.813 5.8071 12.006C5.4911 12.142 5.1961 12.292 4.9231 12.456C3.4251 13.354 2.6001 14.685 2.6001 16.201C2.6001 18.874 5.1271 21.401 7.8001 21.401C9.3171 21.401 10.6461 20.576 11.5451 19.078C11.7091 18.806 11.8581 18.511 11.9951 18.194C13.1881 20.993 15.1571 21.401 16.2011 21.401C18.8741 21.401 21.4011 18.874 21.4011 16.201C21.4011 14.684 20.5761 13.354 19.0781 12.456L19.0771 12.455Z" fill="#006FFF"/>
</svg>
