<svg width="24" height="24" viewBox="0 0 24 24" fill="none" xmlns="http://www.w3.org/2000/svg">
<path d="M16.759 7.444C16.506 7.092 16.054 6.946 15.645 7.075C15.232 7.206 14.952 7.588 14.948 8.02C14.942 8.783 14.746 9.356 14.472 9.785C14.729 7.981 14.54 6.427 13.906 5.076C12.863 2.853 11.334 2.542 11.163 2.514C10.876 2.465 10.581 2.55 10.358 2.737C10.134 2.925 10.004 3.203 10.001 3.494C10.001 3.515 9.95598 5.683 8.29098 7.349C6.10898 9.531 5.00098 11.236 5.00098 14.5C5.00098 20.037 9.57998 21.5 12.001 21.5C14.422 21.5 19.001 20.037 19.001 14.5C19.001 10.601 16.851 7.571 16.759 7.444Z" fill="#006FFF"/>
</svg>
