<svg width="24" height="24" viewBox="0 0 24 24" fill="none" xmlns="http://www.w3.org/2000/svg">
<path d="M20.9301 8.631C20.7791 8.25 20.4101 8 20.0001 8H14.6811L17.6791 2.477C17.8471 2.167 17.8401 1.791 17.6591 1.489C17.4781 1.186 17.1521 1 16.8001 1H10.4001C10.0191 1 9.67111 1.217 9.50311 1.56L4.10311 12.56C3.95111 12.87 3.96911 13.236 4.15211 13.53C4.33511 13.823 4.65511 14.001 5.00111 14.001H8.83111L5.29511 21.578C5.09211 22.013 5.22711 22.53 5.61511 22.811C5.79111 22.938 5.99611 23 6.20111 23C6.44911 23 6.69511 22.908 6.88711 22.728L20.6871 9.728C20.9861 9.447 21.0821 9.012 20.9301 8.631Z" fill="#006FFF"/>
</svg>
