<svg width="24" height="24" viewBox="0 0 24 24" fill="none" xmlns="http://www.w3.org/2000/svg">
<path d="M19 7.136V3C19 2.644 18.811 2.314 18.502 2.135C18.194 1.956 17.814 1.955 17.504 2.132L10.734 6H3C2.448 6 2 6.448 2 7V15C2 15.553 2.448 16 3 16H5V20C5 21.159 5.841 22 7 22H9C10.159 22 11 21.159 11 20V16.152L17.504 19.868C17.657 19.956 17.829 20 18 20C18.174 20 18.347 19.955 18.502 19.865C18.811 19.685 19 19.356 19 19V14.864C20.741 14.429 22 12.894 22 11C22 9.106 20.741 7.571 19 7.136ZM9 20H7V16H9V20ZM19 12.739V9.262C19.604 9.598 20 10.232 20 11.001C20 11.77 19.604 12.402 19 12.739Z" fill="#006FFF"/>
</svg>
