<svg width="24" height="24" viewBox="0 0 24 24" fill="none" xmlns="http://www.w3.org/2000/svg">
<path d="M22.152 9.512L19.462 9.108C19.419 8.994 19.372 8.881 19.323 8.771L20.939 6.584C21.233 6.186 21.191 5.632 20.841 5.283L18.72 3.162C18.37 2.811 17.816 2.771 17.418 3.065L15.232 4.681C15.121 4.633 15.008 4.586 14.894 4.543L14.491 1.852C14.417 1.363 13.997 1 13.502 1H10.502C10.007 1 9.586 1.362 9.513 1.852L9.109 4.542C8.995 4.585 8.882 4.632 8.771 4.681L6.584 3.065C6.185 2.77 5.632 2.812 5.283 3.162L3.162 5.283C2.812 5.633 2.77 6.186 3.065 6.584L4.681 8.771C4.633 8.882 4.586 8.994 4.542 9.108L1.852 9.512C1.363 9.585 1 10.006 1 10.501V13.501C1 13.996 1.362 14.416 1.852 14.49L4.542 14.893C4.586 15.007 4.632 15.12 4.681 15.231L3.066 17.417C2.772 17.815 2.813 18.369 3.163 18.719L5.284 20.84C5.633 21.189 6.186 21.231 6.585 20.938L8.772 19.322C8.883 19.371 8.995 19.417 9.109 19.461L9.513 22.151C9.586 22.64 10.007 23.003 10.502 23.003H13.502C13.997 23.003 14.417 22.641 14.491 22.151L14.894 19.461C15.008 19.418 15.121 19.371 15.232 19.322L17.418 20.938C17.815 21.231 18.371 21.19 18.72 20.84L20.841 18.719C21.191 18.369 21.233 17.816 20.939 17.417L19.323 15.23C19.372 15.12 19.418 15.007 19.462 14.893L22.152 14.49C22.641 14.416 23.004 13.996 23.004 13.501V10.501C23.004 10.006 22.642 9.585 22.152 9.512ZM12.004 16.001C9.798 16.001 8.004 14.207 8.004 12.001C8.004 9.795 9.798 8.001 12.004 8.001C14.21 8.001 16.004 9.795 16.004 12.001C16.004 14.207 14.21 16.001 12.004 16.001Z" fill="#006FFF"/>
</svg>
