<svg width="24" height="24" viewBox="0 0 24 24" fill="none" xmlns="http://www.w3.org/2000/svg">
<path d="M9 12C10.4 12 11.7 11.4 12.5 10.5C13.5 9.5 14 8.3 14 7C14 5.7 13.4 4.3 12.5 3.5C11.5 2.5 10.3 2 9 2C7.7 2 6.3 2.6 5.5 3.5C4.5 4.5 4 5.7 4 7C4 8.3 4.5 9.7 5.5 10.5C6.5 11.5 7.7 12 9 12Z" fill="#006FFF"/>
<path d="M14.6 15.5C13.7 14.5 12.5 14 11 14H7C5.7 14 4.5 14.5 3.5 15.4C2.5 16.3 2 17.5 2 19V22H16V19C16 17.7 15.5 16.5 14.6 15.5Z" fill="#006FFF"/>
<path d="M20.6 15.5C19.7 14.5 18.5 14 17 14H15.8C15.8 14 15.9 14.1 16 14.2C17.3 15.5 18 17.2 18 19V22H22V19C22 17.7 21.5 16.5 20.6 15.5Z" fill="#006FFF"/>
<path d="M18.5 3.5C17.5 2.5 16.3 2 15 2C13.7 2 14.3 2 14 2.1C15.3 3.3 16 5.1 16 7C16 8.9 15.3 10.5 14 11.9C14.3 11.9 14.7 12 15 12C16.4 12 17.7 11.4 18.5 10.5C19.5 9.5 20 8.3 20 7C20 5.7 19.4 4.3 18.5 3.5Z" fill="#006FFF"/>
</svg>
